Simulation
nRows=35
nColumns=15
endheader
time  TH_x TH_y TH_z SC_y  SC_z  SC_x  AC_y  AC_z  AC_x  GH_y  GH_z  GH_yy  EL_x  PS_y
0.0  0.000000  0.000000  0.000000  -41.44638172256055  1.245097477389385  84.37879456657967  21.21046210372831  -48.96772944073493  -65.13536053713277  29.490566603973484  17.36895843287582  -28.280239614525552  96.5083534675615  120.000000
0.04699999999999999  0.000000  0.000000  0.000000  -40.58003766376648  2.45080486778256  81.69363975922835  24.544262445549744  -48.33558866435064  -59.2435582152525  34.776996065202155  20.30077064359881  -32.85809338311353  95.72075694542316  120.000000
0.09399999999999999  0.000000  0.000000  0.000000  -39.914196491849324  3.2934175536726453  78.69257486807528  27.82788553386674  -47.586560129336924  -53.65414285265832  40.046273990891365  22.95053229215669  -37.22507614497613  93.47353249813172  120.000000
0.141  0.000000  0.000000  0.000000  -39.46670291281696  3.9404264793301245  75.66965436973369  31.13013095069114  -46.526081731888674  -48.347156637038935  45.11794406429144  25.721674138091306  -41.38951603279518  89.83781047901905  120.000000
0.18799999999999997  0.000000  0.000000  0.000000  -39.18132434971426  4.508327774444143  72.7663025527138  34.41822447517081  -45.15105320881889  -43.32143820352445  49.78800876666675  28.872433444499386  -45.401992772732044  84.88328570945264  120.000000
0.23499999999999996  0.000000  0.000000  0.000000  -39.02944216141537  5.07477871110426  70.05318100652647  37.57881174634872  -43.50422831169629  -38.577075383336116  53.92225390865839  32.46581570130548  -49.24621563334241  78.77594128620743  120.000000
0.282  0.000000  0.000000  0.000000  -38.97414045511434  5.653466159383624  67.52412453136174  40.47770925956302  -41.691759454906844  -34.1365834650147  57.42458069539768  36.41004893355036  -52.88333628794484  71.69373649899913  120.000000
0.32899999999999996  0.000000  0.000000  0.000000  -38.97869232181472  6.253640373879911  65.15943318064667  43.037847972809246  -39.82274301607431  -30.066687514765515  60.267861431026965  40.526968537366535  -56.21607095931876  63.88383011952368  120.000000
0.37599999999999995  0.000000  0.000000  0.000000  -39.008624444505216  6.860032587761362  62.956923018683554  45.21860408586894  -37.99891397421208  -26.417135921086622  62.471949958350805  44.63135608533311  -59.13356092990697  55.64626681115586  120.000000
0.42299999999999993  0.000000  0.000000  0.000000  -39.0299634511793  7.443256387561869  60.933522878117834  47.01491731977206  -36.30875875390104  -23.22267611737435  64.08790171748488  48.560770340884886  -61.54352089110459  47.31804891640738  120.000000
0.4699999999999999  0.000000  0.000000  0.000000  -39.02889075893205  7.976766718159694  59.108945424368095  48.448761305060074  -34.818553590667584  -20.507812239834607  65.19726911405618  52.17027730139334  -63.37941240928302  39.24696201193617  120.000000
0.5169999999999999  0.000000  0.000000  0.000000  -39.00321983237849  8.431138027785568  57.50531028259815  49.554883979217806  -33.58144843966686  -18.275106809817913  65.91014858549961  55.34870004982337  -64.62518718652252  31.772931338832716  120.000000
0.564  0.000000  0.000000  0.000000  -38.96076891893627  8.79733775920551  56.15046445728313  50.371627117859255  -32.61752386674913  -16.511376478676162  66.34010967059797  58.01329338922407  -65.32151826543543  25.211935883137105  120.000000
0.6109999999999999  0.000000  0.000000  0.000000  -38.908358362753546  9.076838217565117  55.07641371853801  50.94826317726027  -31.91839797694878  -15.189915382390266  66.59377811758863  60.118115296277196  -65.56763179267787  19.843953032933076  120.000000
0.6579999999999999  0.000000  0.000000  0.000000  -38.844804835667375  9.277285997281433  54.30098641380396  51.314400602469505  -31.45020080464598  -14.27918553615351  66.74495013118869  61.61838764027066  -65.49639521066369  15.887410350351873  120.000000
0.7049999999999998  0.000000  0.000000  0.000000  -38.78369016158663  9.409503631603023  53.818605140737894  51.5010205922577  -31.163128641252186  -13.760620108543806  66.82180792557371  62.484619026588305  -65.2454821275379  13.485201285167282  120.000000
0.7519999999999999  0.000000  0.000000  0.000000  -38.73240230736853  9.479375688787478  53.60198253379357  51.51599560884021  -31.003706114939803  -13.610932068833907  66.8130220719487  62.69162289297727  -64.91371323510998  12.688382192322155  120.000000
0.7989999999999999  0.000000  0.000000  0.000000  -38.70468851893798  9.492319245130455  53.61551451589503  51.38301061668425  -30.92506087779248  -13.80040889673919  66.68760937066395  62.26535674506802  -64.5310361892959  13.462124865613685  120.000000
0.8459999999999999  0.000000  0.000000  0.000000  -38.70640632930663  9.456934054226389  53.82732416908635  51.13146364327185  -30.888447401222187  -14.276181956617668  66.41039745307371  61.2841434070822  -64.04463260757049  15.688789430052411  120.000000
0.8929999999999999  0.000000  0.000000  0.000000  -38.74583666786561  9.381675635173393  54.20980344296415  50.80392779568542  -30.86663516158047  -14.967488231493084  65.95290299101302  59.87233589308222  -63.34183780209582  19.193088636120923  120.000000
0.9399999999999998  0.000000  0.000000  0.000000  -38.83258084727273  9.275659499408711  54.73228926760551  50.44850605744216  -30.83851620279071  -15.801857865191138  65.2882412593802  58.1672886394432  -62.28646845977334  23.754004034579157  120.000000
0.9869999999999999  0.000000  0.000000  0.000000  -38.97695941344518  9.139638319600982  55.35266473694754  50.09707038616373  -30.787540868142578  -16.71067323176805  64.3930106742234  56.276858624365225  -60.77025712647635  29.127044395477515  120.000000
1.0339999999999998  0.000000  0.000000  0.000000  -39.184943706314854  8.973740720847896  56.01962083496512  49.782857258140325  -30.691785571063534  -17.64439564399731  63.24444186305703  54.28524321973993  -58.745483989824365  35.0670280196925  120.000000
1.0809999999999997  0.000000  0.000000  0.000000  -39.4496071957285  8.775842482606018  56.671699021133854  49.51780290873494  -30.527844762417406  -18.557247408781922  61.83843895762783  52.23098875577175  -56.24938027475564  41.352642412690024  120.000000
1.128  0.000000  0.000000  0.000000  -39.75709565818533  8.545731690124509  57.24686207917122  49.32061943071207  -30.263499139584784  -19.41272558306331  60.19949220416746  50.13749330563205  -53.38789061667665  47.79575153813012  120.000000
1.1749999999999998  0.000000  0.000000  0.000000  -40.08758474032836  8.288147170688678  57.68433818814712  49.19812334450226  -29.86097641277551  -20.172210999948902  58.386628451123876  47.99867283218073  -50.32326562951801  54.240019353717535  120.000000
1.2219999999999998  0.000000  0.000000  0.000000  -40.43464506957906  8.013138561525643  57.93314529300573  49.159692591157956  -29.2721674752784  -20.79833634245756  56.49600365655159  45.803204513062745  -47.23441721612072  60.54984776050161  120.000000
1.269  0.000000  0.000000  0.000000  -40.79598080809589  7.740795645126161  57.95387259753741  49.21465795589573  -28.45031331434233  -21.247861813398007  54.64763840280862  43.53480831077329  -44.31622276393008  66.61763341605275  120.000000
1.3159999999999998  0.000000  0.000000  0.000000  -41.18513314187328  7.493864678898061  57.72774918490615  49.367747671115396  -27.344283058032932  -21.46990660913144  52.98311420327961  41.18384106601401  -41.74159769691935  72.34888824539243  120.000000
1.3629999999999998  0.000000  0.000000  0.000000  -41.60146065828843  7.310374410508491  57.256321549916194  49.633502002526086  -25.91930072724649  -21.4003311336443  51.64677010332299  38.75440719873315  -39.67861009909516  77.69081900654652  120.000000
1.4099999999999997  0.000000  0.000000  0.000000  -42.05649972803022  7.215453520177287  56.55849996012745  50.0122278080269  -24.148836272733107  -20.972216800123782  50.762017743063986  36.27783206962965  -38.26717289664623  82.61329305120078  120.000000
1.4569999999999999  0.000000  0.000000  0.000000  -42.55672066479917  7.243107652588892  55.65985918043539  50.49602692471627  -22.026987197954476  -20.12187236777608  50.42231539751635  33.80589873449322  -37.61625319799336  87.14543687289914  120.000000
1.5039999999999998  0.000000  0.000000  0.000000  -43.1144344390427  7.392534147157502  54.56473018783619  51.05943068368631  -19.588981503103046  -18.817694802074204  50.68321308829666  31.42083335402912  -37.775938553585355  91.31987712127744  120.000000
1.5509999999999997  0.000000  0.000000  0.000000  -43.77280731207329  7.650418296883217  53.24148847850998  51.64639961180691  -16.903795048838855  -17.07701053007099  51.54171558776699  29.192995344075204  -38.74374128736995  95.14044102116186  120.000000
1.5979999999999999  0.000000  0.000000  0.000000  -44.55494568711486  7.997895177819149  51.693073351087584  52.22755703423257  -14.034286518043672  -14.946969699532232  52.94196323121317  27.231091304996145  -40.45561164536485  98.55164182832677  120.000000
